<?xml version="1.0" encoding="UTF-8"?>
<svg id="Layer_1" data-name="Layer 1" xmlns="http://www.w3.org/2000/svg" viewBox="0 0 213.07 250.92">
  <path d="M212.79,157.64c-.04-3.29-1.99-6.25-4.97-7.54h0s-6.69-2.89-6.69-2.89c-.07-.03-.14-.08-.21-.11h0s-10.26-4.44-10.26-4.44c-2.4-1.04-5.14-.85-7.39.5l-119.81,72.42c-5.4,3.26-5.31,11.23.17,14.36l29.51,16.9c1.08.62,2.26.95,3.46,1.03l3.43,1.97c2.55,1.46,5.68,1.42,8.2-.1l100.84-60.95c2.51-1.51,4.03-4.27,3.99-7.23l-.28-23.92Z" style="fill: #FFFFFF; stroke-width: 0px;"/>
  <path d="M.76,93.28c.04,3.29,2.02,6.25,5.04,7.54h0s6.79,2.89,6.79,2.89c.07.03.14.08.21.11h0s10.42,4.44,10.42,4.44c2.44,1.04,5.22.85,7.5-.5l121.67-72.42c5.48-3.26,5.39-11.23-.17-14.36l-29.97-16.9c-1.1-.62-2.3-.95-3.51-1.03l-3.49-1.97c-2.59-1.46-5.77-1.42-8.32.1L4.53,62.12c-2.54,1.51-4.09,4.27-4.05,7.23l.28,23.92Z" style="fill: #FFFFFF; stroke-width: 0px;"/>
  <path d="M212.7,74.69v-8.44c-.04-3.71-2.69-6.58-5.77-8.4h0l-.03-.02c-.96-1.05-2.16-1.95-3.44-2.67h0s-16.95-9.84-16.95-9.84c-3.52-2.04-7.86-2.02-11.36.06L24.88,134.85c-2.42,1.44-5.44,1.39-7.82-.13l-11.52-7.39C3.14,125.79-.01,127.52,0,130.37l.03,7.03c-.01.14-.03.28-.03.42l.16,44.91c.02,4.24,2.19,8.15,5.7,10.28l.89.54c.82.98,1.81,1.84,2.95,2.49l17.26,9.97c3.53,2.03,7.88,2,11.37-.09l168.9-101.25c3.16-1.88,5.84-5.34,5.84-9.02v-18.79c0-.75-.15-1.47-.37-2.14Z" style="fill: #FFFFFF; stroke-width: 0px;"/>
</svg>