<?xml version="1.0" encoding="UTF-8"?>
<svg id="Layer_1" data-name="Layer 1" xmlns="http://www.w3.org/2000/svg" viewBox="0 0 706.76 804.21">
  <path d="M689.97,486.47l-32.84-14c-7.68-3.27-16.46-2.68-23.64,1.59l-383.47,228.25c-17.27,10.28-16.98,35.4.53,45.27l94.46,53.25c8.17,4.6,18.17,4.49,26.23-.31l322.74-192.11c8.02-4.77,12.89-13.46,12.78-22.79l-.89-75.4c-.12-10.37-6.36-19.69-15.9-23.76Z" style="fill: #000; stroke-width: 0px;"/>
  <path d="M338,4.84L19.34,187.04C7.78,193.65.7,206.01.86,219.32l1.39,117.65c.14,12.06,13.29,19.43,23.66,13.26L466.11,88.21c11.04-6.57,11.02-22.55-.03-29.1L374.9,5.12c-11.36-6.72-25.45-6.83-36.9-.28Z" style="fill: #000; stroke-width: 0px;"/>
  <path d="M686.1,187.06l-57.15-33.18c-11.86-6.89-26.52-6.81-38.3.21L83.9,455.73c-8.16,4.86-18.36,4.69-26.36-.44l-38.86-24.92C10.59,425.18-.04,431.02,0,440.63l.53,142.42c.05,13.45,7.25,25.86,18.9,32.59l58.22,33.61c11.89,6.86,26.56,6.74,38.33-.32l569.56-341.45c10.66-6.34,19.68-18,19.71-30.41v-63.38c-.14-11.75-8.91-20.86-19.14-26.63Z" style="fill: #000; stroke-width: 0px;"/>
</svg>